<?xml version="1.0" encoding="iso-8859-1"?>
<!-- Uploaded to: SVG Repo, www.svgrepo.com, Generator: SVG Repo Mixer Tools -->
<svg height="800px" width="800px" version="1.1" id="Layer_1" xmlns="http://www.w3.org/2000/svg" xmlns:xlink="http://www.w3.org/1999/xlink" 
	 viewBox="0 0 512 512" xml:space="preserve">
<g>
	<path style="fill:#EE8700;" d="M460.167,355.571c-3.39-5.087-9.1-8.143-15.214-8.143H308.452l-30.476-45.714l-10.989,16.483
		l-10.99,16.483L332.212,449c0.434,0.649,0.902,1.259,1.401,1.835c0.033,0.037,0.067,0.072,0.1,0.11
		c0.467,0.532,0.962,1.033,1.479,1.499c0.069,0.062,0.14,0.119,0.212,0.179c0.495,0.433,1.007,0.84,1.541,1.214
		c0.088,0.061,0.178,0.117,0.267,0.177c0.534,0.36,1.081,0.695,1.648,0.994c0.08,0.043,0.167,0.08,0.247,0.124
		c0.585,0.299,1.184,0.572,1.796,0.803c0.06,0.024,0.124,0.043,0.183,0.066c0.64,0.235,1.289,0.44,1.948,0.603
		c0.04,0.01,0.08,0.017,0.119,0.026c0.681,0.163,1.367,0.29,2.059,0.377c0.033,0.004,0.067,0.005,0.1,0.01
		c0.692,0.08,1.391,0.124,2.091,0.127c0.015,0,0.028,0.002,0.043,0.002c0.017,0,0.033-0.002,0.05-0.002h146.219
		c6.743,0,12.94-3.711,16.122-9.657c3.181-5.945,2.833-13.161-0.907-18.771L460.167,355.571z"/>
	<path style="fill:#EE8700;" d="M255.998,268.749L118.832,62.999c-5.602-8.404-16.955-10.673-25.357-5.071
		c-8.404,5.603-10.674,16.955-5.071,25.359l145.619,218.428l10.989-16.483L255.998,268.749z"/>
</g>
<path style="fill:#FFB655;" d="M277.976,301.713l145.62-218.427c5.603-8.404,3.33-19.756-5.071-25.359
	c-8.405-5.602-19.755-3.332-25.357,5.071L256,268.749l-10.989,16.482l-10.989,16.483l-30.476,45.714H67.047
	c-6.115,0-11.824,3.056-15.214,8.143L3.071,428.714c-3.741,5.611-4.089,12.827-0.908,18.771c3.182,5.947,9.378,9.657,16.123,9.657
	h146.219c0.017,0,0.033,0.002,0.05,0.002c0.015,0,0.028-0.002,0.044-0.002c0.7-0.002,1.399-0.045,2.093-0.127
	c0.032-0.004,0.065-0.005,0.095-0.009c0.695-0.085,1.385-0.213,2.066-0.378c0.035-0.009,0.074-0.016,0.112-0.026
	c0.663-0.163,1.317-0.369,1.958-0.607c0.056-0.021,0.115-0.038,0.171-0.06c0.617-0.234,1.219-0.51,1.808-0.811
	c0.078-0.039,0.158-0.077,0.235-0.117c0.569-0.301,1.12-0.639,1.658-1.001c0.084-0.059,0.173-0.111,0.257-0.171
	c0.534-0.374,1.05-0.783,1.547-1.218c0.068-0.06,0.14-0.117,0.208-0.177c0.517-0.467,1.009-0.967,1.479-1.499
	c0.032-0.038,0.068-0.073,0.1-0.11c0.497-0.575,0.967-1.186,1.398-1.835l48.766-73.148l27.448-41.173l10.99-16.483L277.976,301.713z
	"/>
<path style="fill:#424EDE;" d="M67.047,347.427c-6.115,0-11.824,3.056-15.214,8.143L3.071,428.714
	c-3.741,5.611-4.089,12.826-0.908,18.771c3.182,5.947,9.378,9.657,16.123,9.657H131.47V347.427H67.047z"/>
<path style="fill:#DF6246;" d="M509.837,447.485c3.181-5.945,2.833-13.161-0.907-18.771l-48.762-73.143
	c-3.39-5.087-9.1-8.143-15.214-8.143H384v109.715h109.715C500.457,457.142,506.655,453.431,509.837,447.485z"/>
</svg>